<?xml version="1.0" encoding="UTF-8" standalone="no"?>
<svg
   xmlns="http://www.w3.org/2000/svg"
   version="1.1"
   viewBox="0 0 914 847"
   width="914"
   height="847"
   id="svg254">
<defs
   id="defs4">
</defs>
<rect
   x="0"
   y="0"
   width="914"
   height="847"
   fill="#ffffff"
   id="rect6" />
<g
   stroke-linecap="round"
   transform="translate(10 10) rotate(0 447 413.5)"
   id="g10">
  <path
     d="M-0.29 -0.25 C296.47 2.6, 594.46 2.68, 894.28 -0.38 M-0.09 -0.05 C264.32 -0.6, 528.4 -0.22, 893.86 0.09 M893.68 -0.5 C893.77 308.69, 893.07 617.1, 893.51 826.97 M893.9 -0.21 C895.39 319.39, 895.24 638.44, 894.36 827.06 M893.88 827.23 C670.05 827.09, 446.85 827.9, -0.64 826.78 M893.76 826.92 C626.68 830.12, 358.82 830.61, 0 827.21 M-0.32 826.27 C-0.2 519.89, 0.09 213.47, 0.61 0 M-0.26 826.76 C-2.39 615.27, -2.54 404.55, -0.24 -0.29"
     stroke="#000000"
     stroke-width="1"
     fill="none"
     id="path8" />
</g>
<g
   stroke-linecap="round"
   transform="translate(39 112) rotate(0 421.5000000000001 91)"
   id="g14">
  <path
     d="M0.65 0.01 C257.05 2.03, 514.71 0.79, 843.43 -0.54 M0.37 0.13 C249.63 0.92, 499.34 0.94, 842.69 0.22 M842.86 -1.73 C843.84 40.07, 841.13 75.19, 844.21 183.83 M842.16 0.49 C843.91 60.82, 844.08 121.22, 842.43 181.12 M842.94 182.26 C602.08 184.8, 362.31 183.92, -0.29 182.26 M843.18 182.38 C563.21 179.71, 283.85 179.32, -0.26 181.7 M0.54 181.55 C-1.8 121, -1.02 60.68, -1.41 1.51 M-0.81 182.76 C-1.74 145.57, -1.81 108.05, 0.07 0.64"
     stroke="#000000"
     stroke-width="1"
     fill="none"
     id="path12" />
</g>
<g
   stroke-linecap="round"
   transform="translate(42 315) rotate(0 419 120.5)"
   id="g18">
  <path
     d="M-0.73 0.36 C237.2 2.55, 474.4 1.78, 838.09 0.76 M-0.22 0.05 C299.26 1.89, 598.99 1.76, 837.62 0.21 M838.18 -0.41 C839.23 54.77, 838.65 108.16, 837.8 240.86 M837.28 -0.09 C837.99 73.28, 839.46 146.55, 838.48 241.27 M837.78 241.38 C638.64 243.43, 439.59 244.45, -0.09 240.62 M838.28 240.79 C648.58 239.09, 459.35 239.41, -0.1 240.93 M1.17 241.05 C-2.24 169.54, -2.85 97.29, -1.46 -1.33 M0.03 240.98 C1.12 170.61, -0.04 100.19, -0.14 -0.04"
     stroke="#000000"
     stroke-width="1"
     fill="none"
     id="path16" />
</g>
<g
   stroke-linecap="round"
   transform="translate(47 34) rotate(0 107.5 30)"
   id="g22">
  <path
     d="M1.04 -0.48 C73.87 2.62, 147.32 0.14, 213.96 -0.28 M-0.37 0.14 C72.21 1.08, 144.77 1.06, 215.72 0.83 M213.07 -1.79 C217.23 16.39, 213.59 34.9, 214.49 59.85 M215.14 -0.04 C214.13 18.78, 214.41 36.44, 214.11 60.06 M215.88 58.5 C167.18 60.85, 119.01 61.3, -0.74 61.46 M215.06 59.21 C160.6 59.81, 106.21 58.79, 0.84 60.39 M0.14 61.44 C1.27 44.1, 2.08 28.43, -1.37 -1.34 M0.61 60.53 C1.46 46.44, 0.09 33.71, -0.8 0.76"
     stroke="#000000"
     stroke-width="1"
     fill="none"
     id="path20" />
</g>
<g
   stroke-linecap="round"
   transform="translate(718 33) rotate(0 80.5 28)"
   id="g26">
  <path
     d="M-1.8 0.26 C37.42 0.44, 70.75 1.82, 161.89 -0.67 M0.72 0.46 C39 0.75, 78.11 -0.8, 160.33 -0.83 M162.06 1.95 C160.27 11.42, 160.81 22.83, 162.53 54.61 M161.02 0.75 C161.64 21.48, 160.15 41.89, 161.79 56.56 M160.46 56.44 C111.64 58.56, 65.67 55.59, -0.18 54.62 M160.33 56.05 C98.52 55.33, 35.48 56.36, 0 56.99 M1.86 57.94 C1.69 41.23, -0.66 25.45, -1.61 1.82 M-0.14 55.96 C0.7 36.36, -1.03 17.86, -0.01 -0.5"
     stroke="#000000"
     stroke-width="1"
     fill="none"
     id="path24" />
</g>
<g
   stroke-linecap="round"
   transform="translate(737 52) rotate(0 11 10)"
   id="g30">
  <path
     d="M12.96 -1.05 C15.44 4.41, 18.95 6.53, 23.19 11.72 M12.66 0.27 C14.31 3, 16.97 6.76, 22.17 10.87 M21.47 12.07 C20.54 13.16, 18.68 15.08, 11.7 20.96 M22.44 10.74 C18.7 14.07, 14.84 18.43, 12.24 20.52 M11.21 18.75 C8.71 17.52, 4.39 14.61, -0.23 10.17 M11.54 19.55 C8.56 18.3, 6.71 16.41, -0.01 10.76 M1.36 10.13 C3.55 8.34, 7.18 3.19, 11.72 1.19 M0.31 10.97 C3.19 9.23, 5.6 7.17, 11.26 -0.53"
     stroke="#000000"
     stroke-width="1"
     fill="none"
     id="path28" />
</g>
<g
   stroke-linecap="round"
   transform="translate(782 51) rotate(0 11 10)"
   id="g34">
  <path
     d="M13.34 -0.78 C14.52 4.29, 19.5 7.56, 21.66 10.77 M11.63 -0.46 C13.92 1.98, 17.22 5.55, 22.56 10.99 M23.08 12.12 C18.66 12.86, 17.83 14.72, 12.14 19.76 M22.59 11.25 C18.16 15.01, 14.9 18.37, 12.57 19.39 M13.08 18.97 C9.34 17.29, 7.02 14.44, -0.65 9.86 M12.12 20.39 C9.13 17.45, 5.8 15.26, -0.64 11.43 M1.26 10.64 C4.45 7.91, 8.21 1.22, 12 0.89 M0.5 10.31 C3.62 8.37, 5.82 4.35, 11.89 -0.75"
     stroke="#000000"
     stroke-width="1"
     fill="none"
     id="path32" />
</g>
<g
   stroke-linecap="round"
   transform="translate(830 52) rotate(0 11 10)"
   id="g38">
  <path
     d="M10.52 0 C16.39 3.9, 18.13 8.19, 22.99 12.44 M12.73 -0.26 C16.27 3.78, 19.71 8.24, 22.37 10.37 M21.56 10.31 C19.57 13.95, 16.69 14.93, 11.02 19.27 M21.95 11.56 C20.42 12.86, 17.75 15.39, 11.72 19.37 M12.45 20.8 C9.28 16, 5.51 15.32, -1.17 9.83 M12.34 19.87 C8.43 17.92, 5.74 14.21, 0.13 11.75 M-0.67 11.19 C2.3 9.95, 4.79 5.18, 13.21 -0.12 M0.48 10.65 C2.34 8.24, 5.05 5.77, 12.56 -0.15"
     stroke="#000000"
     stroke-width="1"
     fill="none"
     id="path36" />
</g>
<g
   transform="translate(52 51.5) rotate(0 102.5 12.5)"
   id="g42">
  <text
     x="102.5"
     y="18"
     font-family="Virgil, Segoe UI Emoji"
     font-size="20px"
     fill="#000000"
     text-anchor="middle"
     style="white-space: pre;"
     direction="ltr"
     id="text40">React CV Builder</text>
</g>
<g
   stroke-linecap="round"
   transform="translate(183 183) rotate(0 98 12.5)"
   id="g46">
  <path
     d="M-1.42 0.95 C72.21 -1.6, 142.01 -0.16, 196.59 1.28 M0.62 -0.98 C50.53 -1.33, 99.77 -0.36, 195.05 -0.42 M195.06 -0.1 C194.51 7.3, 195.58 12.69, 197.98 26.37 M196.01 0.13 C195.28 9.32, 195.89 16.46, 195.56 25.89 M196.93 23.41 C143.88 24.91, 94.65 26.16, -1.35 26.15 M195.75 25.33 C156.37 26.43, 117.52 25.99, -0.9 24.59 M0.78 25.01 C0.11 17.45, -2.18 9.92, -0.2 -1.93 M-0.36 25.36 C-0.55 19.08, -0.25 13.97, -0.24 0.36"
     stroke="#000000"
     stroke-width="1"
     fill="none"
     id="path44" />
</g>
<g
   transform="translate(62 187.5) rotate(0 51.5 10)"
   id="g50">
  <text
     x="0"
     y="14"
     font-family="Virgil, Segoe UI Emoji"
     font-size="16px"
     fill="#000000"
     text-anchor="start"
     style="white-space: pre;"
     direction="ltr"
     id="text48">first name(s)</text>
</g>
<g
   transform="translate(57 123) rotate(0 40.5 10)"
   id="g54">
  <text
     x="0"
     y="14"
     font-family="Virgil, Segoe UI Emoji"
     font-size="16px"
     fill="#000000"
     text-anchor="start"
     style="white-space: pre;"
     direction="ltr"
     id="text52">About You</text>
</g>
<g
   stroke-linecap="round"
   id="g60">
  <g
     transform="translate(54 148) rotate(0 403.77041400361344 -1.1487513382313779)"
     id="g58">
    <path
       d="M1.01 1.01 C135.69 0.83, 673.28 -1.06, 807.46 -1.47 M0.08 0.49 C134.7 -0.02, 672.01 -2.65, 806.75 -3.31"
       stroke="#000000"
       stroke-width="1"
       fill="none"
       id="path56" />
  </g>
</g>
<g
   transform="translate(82.5 232) rotate(0 39.5 10)"
   id="g64">
  <text
     x="0"
     y="14"
     font-family="Virgil, Segoe UI Emoji"
     font-size="16px"
     fill="#000000"
     text-anchor="start"
     style="white-space: pre;"
     direction="ltr"
     id="text62">last name</text>
</g>
<g
   stroke-linecap="round"
   transform="translate(181 229.5) rotate(0 98 12.5)"
   id="g68">
  <path
     d="M1.37 1.7 C44.52 -3.23, 88 -1.76, 197.59 1.43 M0.59 -0.93 C47.01 -0.89, 95.75 -0.95, 196.88 -0.84 M197.71 -0.21 C194.19 5.21, 193.86 11.7, 195.57 23.81 M195.34 0.69 C195.39 4.98, 195.67 10.2, 196.55 25.76 M194.78 24.86 C130.71 24.02, 63.01 25.25, -1.72 26.59 M195.96 24.39 C119.7 26.32, 44.6 24.46, -0.87 24.15 M1.43 26.1 C-0.63 15.38, 0.01 5.52, 0.6 -0.45 M-0.71 24.41 C-0.88 18.83, 0.12 13.72, 0.05 -0.77"
     stroke="#000000"
     stroke-width="1"
     fill="none"
     id="path66" />
</g>
<g
   stroke-linecap="round"
   transform="translate(542.5 184.25) rotate(0 98 12.5)"
   id="g72">
  <path
     d="M-0.85 1.36 C50.34 3.42, 100.84 2.55, 195.24 -0.29 M0.09 0.77 C47.63 1.14, 95.2 1.53, 195.48 0.81 M196.69 0.04 C196.14 7.16, 197.85 14.08, 195.22 26.69 M195.97 -0.42 C196.39 8.26, 196.52 15.36, 196.54 25.02 M194.56 25.37 C123.6 23.38, 51.81 22.56, -0.85 25.33 M195.7 24.82 C120.84 26.41, 45.98 26.3, -0.3 25.06 M0.02 23.83 C0.64 19.71, 1.33 9.97, -0.83 1.81 M0.68 24.8 C-0.06 16.69, 0.25 9.06, 0.54 -0.7"
     stroke="#000000"
     stroke-width="1"
     fill="none"
     id="path70" />
</g>
<g
   transform="translate(478.5 188.75) rotate(0 19 10)"
   id="g76">
  <text
     x="0"
     y="14"
     font-family="Virgil, Segoe UI Emoji"
     font-size="16px"
     fill="#000000"
     text-anchor="start"
     style="white-space: pre;"
     direction="ltr"
     id="text74">email</text>
</g>
<g
   transform="translate(447 232.25) rotate(0 36.5 10)"
   id="g80">
  <text
     x="0"
     y="14"
     font-family="Virgil, Segoe UI Emoji"
     font-size="16px"
     fill="#000000"
     text-anchor="start"
     style="white-space: pre;"
     direction="ltr"
     id="text78">telephone</text>
</g>
<g
   stroke-linecap="round"
   transform="translate(542.5 229.75) rotate(0 98 12.5)"
   id="g84">
  <path
     d="M1.71 0.31 C51.36 -0.83, 100.75 -1.26, 197.78 -1.62 M-0.45 0.72 C60.43 -1.3, 121.78 -0.61, 196.91 0.9 M195.25 1.62 C194.26 7.58, 197.69 17.01, 195.07 26.44 M196.39 0.64 C195.52 7.97, 195.91 15.54, 196.04 24.34 M195.67 25.25 C150.19 23.98, 107.02 26.43, 1.81 26.34 M196.1 24.01 C143.13 23.43, 90.34 23.64, 0.38 24.13 M1.99 26.43 C-0.32 16.65, 1.96 10.37, 0.83 -0.08 M-0.29 25.35 C0.15 16.34, -0.65 6.77, 0.97 -0.97"
     stroke="#000000"
     stroke-width="1"
     fill="none"
     id="path82" />
</g>
<g
   transform="translate(60 330.5) rotate(0 39 10)"
   id="g88">
  <text
     x="0"
     y="14"
     font-family="Virgil, Segoe UI Emoji"
     font-size="16px"
     fill="#000000"
     text-anchor="start"
     style="white-space: pre;"
     direction="ltr"
     id="text86">Education</text>
</g>
<g
   stroke-linecap="round"
   id="g94">
  <g
     transform="translate(57 355.5) rotate(0 402.6939288561559 -1.8895883440505656)"
     id="g92">
    <path
       d="M0.5 -0.76 C135 -1.48, 671.83 -3.04, 806.08 -3.42 M-0.69 1.46 C133.82 0.3, 671.29 -4.18, 805.7 -5.24"
       stroke="#000000"
       stroke-width="1"
       fill="none"
       id="path90" />
  </g>
</g>
<g
   stroke-linecap="round"
   transform="translate(174.25 380.125) rotate(0 98 12.5)"
   id="g98">
  <path
     d="M-0.97 0.85 C46.88 -2.25, 96.38 -2.38, 197.07 -0.12 M0.92 -0.85 C61.96 1.42, 125.12 2.9, 196.1 0.39 M196.96 -1.63 C195.12 8.76, 197.26 17.09, 197.46 24.21 M196.68 -0.08 C195.09 8.18, 195.03 14.97, 196.97 24.08 M196.48 25.12 C150.22 26.12, 103.64 25.83, -0.65 24.55 M196.52 25.98 C146.13 25.39, 98.72 25.39, -0.96 24.86 M1.89 24.63 C1.34 19.6, 1.06 9.86, -0.88 -1.19 M0.77 24.73 C0.26 16.16, -0.15 7.83, 0.5 0.54"
     stroke="#000000"
     stroke-width="1"
     fill="none"
     id="path96" />
</g>
<g
   transform="translate(75.25 382.625) rotate(0 42.5 10)"
   id="g102">
  <text
     x="0"
     y="14"
     font-family="Virgil, Segoe UI Emoji"
     font-size="16px"
     fill="#000000"
     text-anchor="start"
     style="white-space: pre;"
     direction="ltr"
     id="text100">Institution</text>
</g>
<g
   stroke-linecap="round"
   transform="translate(169.75 432.875) rotate(0 102.50000000000006 51.5)"
   id="g106">
  <path
     d="M-0.11 0.34 C80.98 -2.76, 163.23 -2.49, 204.04 -0.96 M0.35 0.66 C64.16 -1.02, 128.92 -0.91, 204.62 -0.27 M204.21 0.01 C203.66 36.23, 205.52 74.87, 203.31 104.32 M204.08 -0.69 C204.82 21.6, 205.18 43.15, 204.71 103.51 M204.6 102.11 C162.72 102.78, 123.03 104.15, -1.54 102.96 M204.87 102.68 C128.81 100.7, 53.06 101.08, 0.62 103.54 M-1.19 103.47 C1.86 66.74, 2.52 29.1, 0.73 -1.49 M0.54 103.54 C1.29 72.25, 0.12 42.3, -0.07 0.4"
     stroke="#000000"
     stroke-width="1"
     fill="none"
     id="path104" />
</g>
<g
   transform="translate(72.5 437) rotate(0 40 10)"
   id="g110">
  <text
     x="0"
     y="14"
     font-family="Virgil, Segoe UI Emoji"
     font-size="16px"
     fill="#000000"
     text-anchor="start"
     style="white-space: pre;"
     direction="ltr"
     id="text108">Subject(s)</text>
</g>
<g
   transform="translate(492.5 385) rotate(0 21 10)"
   id="g114">
  <text
     x="0"
     y="14"
     font-family="Virgil, Segoe UI Emoji"
     font-size="16px"
     fill="#000000"
     text-anchor="start"
     style="white-space: pre;"
     direction="ltr"
     id="text112">Date</text>
</g>
<g
   stroke-linecap="round"
   transform="translate(557 386.5) rotate(0 23 8.5)"
   id="g118">
  <path
     d="M0.64 0.56 C13.9 1.27, 24.35 0.56, 45.33 0.48 M-0.39 0.71 C15.33 0.45, 31.42 0.51, 46.69 0.95 M47.11 1.54 C46.45 5.78, 45.98 10.49, 45.06 16.48 M46.41 -0.74 C45.84 5.47, 46.32 11.83, 46.84 17.63 M46.89 15.79 C29.88 15.55, 14.75 19.21, -1.05 18.97 M46.69 16.21 C29.03 17.03, 14.2 17.76, -0.13 17.96 M0.48 17.42 C1.24 9.23, -0.09 4.97, 1.57 -1.28 M0.29 16.93 C-0.66 13.88, 0.34 9.6, -0.19 -0.41"
     stroke="#000000"
     stroke-width="1"
     fill="none"
     id="path116" />
</g>
<g
   stroke-linecap="round"
   id="g124">
  <g
     transform="translate(627 395) rotate(0 -6.163204273977271 -0.6071546938901804)"
     id="g122">
    <path
       d="M-0.27 0.03 C-2.8 0.05, -11.96 0.34, -14.11 0.16 M1.79 -1 C-0.48 -1.29, -9.34 -1.57, -11.99 -1.36"
       stroke="#000000"
       stroke-width="1"
       fill="none"
       id="path120" />
  </g>
</g>
<g
   stroke-linecap="round"
   transform="translate(637 387) rotate(0 23 9)"
   id="g128">
  <path
     d="M1.57 1.32 C16.62 0.32, 38.09 -2.01, 44.67 -1.46 M0.37 0.26 C12.72 -0.86, 23.79 0.37, 45.28 -0.55 M46.5 -0.33 C45.67 7.24, 45.08 11.57, 47.48 18.31 M45.55 -0.66 C46.08 3.29, 46.6 7.95, 46.1 18.23 M46.74 17.35 C29.36 18.51, 12.91 17.39, -0.29 18.09 M45.36 17.1 C30.38 17.83, 15.98 17.48, -0.59 18.18 M0.91 17.23 C1.22 13.85, 1.32 8.48, 1.21 -0.59 M-0.37 17.97 C0.88 11.48, 0.13 4.26, -0.05 0.52"
     stroke="#000000"
     stroke-width="1"
     fill="none"
     id="path126" />
</g>
<g
   stroke-linecap="round"
   transform="translate(190 449) rotate(0 43 9.5)"
   id="g132">
  <path
     d="M1.24 -0.11 C33.44 0.66, 67.19 -0.62, 87.3 0.65 M0.76 0.81 C19.74 -0.06, 38.37 0.53, 85.13 0.45 M86.95 -0.73 C86.42 5.37, 85.16 10.4, 86.53 20.49 M86.26 0.77 C86.47 6.95, 86.44 12.43, 85.29 18.58 M84.5 18.81 C51.15 19.88, 16.1 17.99, 0.45 17.16 M86.46 18.28 C66.76 17.94, 49.07 18.15, 0.11 19.67 M-0.05 19.83 C1 15.03, 0.55 8.58, -0.47 1.7 M-0.37 19.78 C-0.07 13.47, -0.28 6.27, -0.24 0.89"
     stroke="#000000"
     stroke-width="1"
     fill="none"
     id="path130" />
</g>
<g
   stroke-linecap="round"
   id="g138">
  <g
     transform="translate(355.0000000000001 509) rotate(0 -0.07760431167207571 9.202271278989542)"
     id="g136">
    <path
       d="M1.14 -0.76 C1.25 2.35, -0.02 14.89, -0.23 18.1 M0.28 1.46 C0.29 4.74, -1.09 16.15, -1.3 19.16"
       stroke="#000000"
       stroke-width="1"
       fill="none"
       id="path134" />
  </g>
</g>
<g
   stroke-linecap="round"
   id="g144">
  <g
     transform="translate(344 517) rotate(0 11.60104813729879 0.2764266742402697)"
     id="g142">
    <path
       d="M-1.19 0.55 C2.66 0.37, 18.15 -0.48, 22.14 -0.39 M0.38 -0.21 C4.69 -0.27, 20.82 1.02, 24.39 0.94"
       stroke="#000000"
       stroke-width="1"
       fill="none"
       id="path140" />
  </g>
</g>
<g
   stroke-linecap="round"
   transform="translate(822 509) rotate(0 21 16.5)"
   id="g148">
  <path
     d="M26.23 0.19 C30.46 0.75, 36.2 3.79, 38.71 6.8 C41.22 9.81, 41.77 14.62, 41.3 18.26 C40.84 21.9, 38.93 26.09, 35.92 28.62 C32.92 31.15, 27.75 33.26, 23.28 33.43 C18.8 33.6, 12.85 31.51, 9.08 29.64 C5.3 27.77, 1.94 25.62, 0.64 22.2 C-0.65 18.78, -0.58 12.66, 1.31 9.13 C3.19 5.6, 7.12 2.35, 11.95 1.04 C16.78 -0.28, 26.79 0.87, 30.28 1.22 C33.77 1.58, 33.07 2.99, 32.9 3.16 M12.53 1.53 C16.39 0.14, 24.23 1.33, 28.85 2.28 C33.48 3.23, 38.13 4.53, 40.31 7.21 C42.49 9.89, 42.79 15, 41.92 18.37 C41.04 21.73, 38.47 25.11, 35.06 27.4 C31.66 29.69, 26.14 31.87, 21.48 32.1 C16.82 32.32, 10.44 30.56, 7.13 28.75 C3.81 26.94, 2.37 24.79, 1.6 21.23 C0.83 17.66, 0.41 10.9, 2.5 7.36 C4.58 3.82, 12.53 1.15, 14.11 -0.01 C15.69 -1.17, 11.87 0.02, 11.97 0.41"
     stroke="#000000"
     stroke-width="1"
     fill="none"
     id="path146" />
</g>
<g
   stroke-linecap="round"
   id="g154">
  <g
     transform="translate(844.5 514.5) rotate(0 -0.2276096375751422 8.843801656537664)"
     id="g152">
    <path
       d="M-0.82 -1.05 C-0.71 1.89, -0.46 14.3, -0.3 17.82 M0.96 1.01 C0.97 4.04, -1.16 15.85, -1.41 18.74"
       stroke="#000000"
       stroke-width="1"
       fill="none"
       id="path150" />
  </g>
</g>
<g
   stroke-linecap="round"
   id="g160">
  <g
     transform="translate(832.5 523.5) rotate(0 11.431066299113468 0.12891615011727708)"
     id="g158">
    <path
       d="M-1.05 -0.3 C2.56 -0.14, 17.63 0.15, 21.82 0.15 M0.6 -1.51 C4.54 -1.06, 20.03 1.37, 23.91 1.77"
       stroke="#000000"
       stroke-width="1"
       fill="none"
       id="path156" />
  </g>
</g>
<g
   stroke-linecap="round"
   transform="translate(555 436.5) rotate(0 93.5 48)"
   id="g164">
  <path
     d="M-0.14 -1.15 C41.07 -1.69, 81.97 -2.22, 187.23 1.25 M-0.73 0.17 C59.09 0.45, 117.91 0.29, 187.47 0.11 M186.42 -0.06 C186.3 29.14, 188.4 61, 185.43 96.5 M187.72 0.81 C186.61 24.6, 186.38 49.48, 186.8 95.96 M187.14 95.93 C120.76 96.5, 55.32 93.76, -0.01 95.34 M187.32 95.77 C140.62 97.1, 92.21 96.45, 0.77 96.95 M-0.12 97.48 C1.22 59.62, -0.81 19.16, -0.26 1.93 M-0.11 96.08 C0.56 72.08, 1.28 47.08, -0.36 0.97"
     stroke="#000000"
     stroke-width="1"
     fill="none"
     id="path162" />
</g>
<g
   transform="translate(441 438) rotate(0 53.5 10)"
   id="g168">
  <text
     x="0"
     y="14"
     font-family="Virgil, Segoe UI Emoji"
     font-size="16px"
     fill="#000000"
     text-anchor="start"
     style="white-space: pre;"
     direction="ltr"
     id="text166">Qualifications</text>
</g>
<g
   stroke-linecap="round"
   transform="translate(569 448) rotate(0 81 8.5)"
   id="g172">
  <path
     d="M-1.19 -1.43 C52.51 -2.73, 103.85 -2.99, 160.17 -0.44 M0.61 0.47 C53.41 -0.9, 104.31 -0.65, 162.25 -0.45 M163.09 -0.18 C162.05 4.59, 162.17 9.71, 160.76 16.77 M162.49 -0.34 C162.56 5.56, 161.53 12.26, 161.61 17.69 M160.95 17.84 C105.17 17.4, 46.69 17.32, -0.13 17.85 M162.98 17.96 C104.61 17.46, 49.18 17.73, -0.17 16.29 M-0.35 16.95 C1.75 12.8, 0.11 7.57, 1.1 0.28 M-0.54 16.7 C-0.15 11.56, 0.52 5.05, -0.37 -0.53"
     stroke="#000000"
     stroke-width="1"
     fill="none"
     id="path170" />
</g>
<g
   stroke-linecap="round"
   transform="translate(573 477) rotate(0 80.5 8.5)"
   id="g176">
  <path
     d="M0.79 -0.93 C54.94 1.53, 111.1 2.18, 162.76 1.96 M0.15 -0.7 C63.59 0.84, 127.56 0.84, 161.42 -0.21 M160.99 0.87 C162.26 5.33, 162.2 9.13, 162.65 15.91 M161.42 0.33 C160.58 3.97, 161.07 8.49, 161.35 17.08 M162.4 17.62 C129.38 20.26, 92.59 16.58, 1.87 15.97 M161.96 16.5 C112.38 17.52, 66.38 18.21, -0.05 17.28 M1.12 17.03 C1.48 11.66, -0.2 7.96, -1.51 -0.77 M-0.37 17.84 C0.87 11, 0.72 6.52, -0.47 0.45"
     stroke="#000000"
     stroke-width="1"
     fill="none"
     id="path174" />
</g>
<g
   stroke-linecap="round"
   transform="translate(578 506) rotate(0 76.5 8)"
   id="g180">
  <path
     d="M1.81 1.4 C47.87 1, 96.31 -2.36, 151.12 1.87 M0.31 0.96 C37.55 -2.07, 76.11 -0.34, 153.7 -0.05 M152.02 1.05 C153.01 6.75, 152.56 10.43, 153.71 14.58 M152.36 -0.35 C153.84 4.82, 152.64 8.75, 153.62 15.56 M151.27 14.26 C98.41 16.38, 43.68 16.15, 0.85 16.52 M153.49 16.04 C102.91 16.48, 51.26 16, -0.22 16.75 M-0.27 14.89 C0.55 10.91, -0.45 4.79, 0.15 0.62 M-0.58 16.07 C0.05 12.84, 0 7.42, -0.53 -0.54"
     stroke="#000000"
     stroke-width="1"
     fill="none"
     id="path178" />
</g>
<g
   stroke-linecap="round"
   transform="translate(45 577) rotate(0 418 117.5)"
   id="g184">
  <path
     d="M0.42 0.63 C224.22 0.81, 449.35 0.59, 835.56 -0.53 M0.07 0.03 C246.72 0.22, 493.03 0.26, 835.79 0.22 M834.95 -1.66 C839.15 87.2, 837.35 171.08, 835.47 236.39 M835.17 -0.61 C834.92 82.42, 834.66 165.47, 835.33 234.8 M836.37 235.66 C528.18 231.6, 221.05 232.82, 0.46 235.44 M836.07 235.28 C507.72 235.37, 180.13 235.72, 0.07 235.09 M-0.58 234.98 C-0.68 186.36, -1.85 136.25, -0.13 -0.65 M0.1 234.9 C-1.86 160.58, -1.72 85.26, -0.45 -0.82"
     stroke="#000000"
     stroke-width="1"
     fill="none"
     id="path182" />
</g>
<g
   transform="translate(61.5 591.5) rotate(0 40.5 10)"
   id="g188">
  <text
     x="0"
     y="14"
     font-family="Virgil, Segoe UI Emoji"
     font-size="16px"
     fill="#000000"
     text-anchor="start"
     style="white-space: pre;"
     direction="ltr"
     id="text186">Experience</text>
</g>
<g
   stroke-linecap="round"
   id="g194">
  <g
     transform="translate(58.5 616.5) rotate(0 402.76317178060765 -1.943815153664957)"
     id="g192">
    <path
       d="M0.67 0.63 C135.13 0.02, 672.01 -2.36, 805.96 -2.95 M-0.43 -0.08 C134.02 -1.07, 671.56 -3.76, 805.51 -4.52"
       stroke="#000000"
       stroke-width="1"
       fill="none"
       id="path190" />
  </g>
</g>
<g
   stroke-linecap="round"
   transform="translate(827 766.5) rotate(0 21 16.5)"
   id="g198">
  <path
     d="M18.98 0.71 C23.18 0.44, 29.97 1.87, 33.56 3.72 C37.15 5.57, 39.56 8.28, 40.5 11.79 C41.44 15.3, 40.97 21.53, 39.22 24.77 C37.47 28.02, 34 29.97, 29.99 31.25 C25.98 32.52, 19.42 33.42, 15.16 32.43 C10.89 31.43, 7.06 28.33, 4.39 25.29 C1.73 22.25, -1.06 17.6, -0.83 14.17 C-0.61 10.75, 1.81 6.93, 5.74 4.74 C9.68 2.55, 19.38 1.81, 22.78 1.02 C26.17 0.23, 26.32 -0.17, 26.12 0.02 M21.04 0 C25.31 -0.5, 31.73 0.96, 34.98 2.98 C38.23 5, 39.94 8.6, 40.53 12.11 C41.13 15.61, 40.52 20.7, 38.57 24.01 C36.63 27.32, 32.83 30.86, 28.87 31.99 C24.9 33.12, 19.08 32.2, 14.79 30.82 C10.5 29.43, 5.57 26.72, 3.11 23.7 C0.64 20.68, -0.78 15.72, -0.01 12.7 C0.77 9.67, 4.36 7.57, 7.74 5.54 C11.12 3.51, 18.36 1.2, 20.26 0.52 C22.17 -0.17, 19.24 1.06, 19.16 1.43"
     stroke="#000000"
     stroke-width="1"
     fill="none"
     id="path196" />
</g>
<g
   stroke-linecap="round"
   id="g204">
  <g
     transform="translate(849.5 772) rotate(0 -0.10499929281718323 9.27334400122055)"
     id="g202">
    <path
       d="M0.44 -0.15 C0.54 3.07, 0.68 15.2, 0.46 18.53 M-0.79 -1.27 C-0.8 2.18, -0.64 16.62, -0.25 19.82"
       stroke="#000000"
       stroke-width="1"
       fill="none"
       id="path200" />
  </g>
</g>
<g
   stroke-linecap="round"
   id="g210">
  <g
     transform="translate(837.5 781) rotate(0 10.421869265618739 -0.20645587071777527)"
     id="g208">
    <path
       d="M-0.15 0.46 C3.74 0.24, 18.53 -0.81, 22.53 -0.87 M-1.68 -0.35 C2.07 -0.47, 17.14 -0.09, 21.33 0.21"
       stroke="#000000"
       stroke-width="1"
       fill="none"
       id="path206" />
  </g>
</g>
<g
   stroke-linecap="round"
   transform="translate(183.75 649.125) rotate(0 136 12.5)"
   id="g214">
  <path
     d="M-0.37 -1.06 C95.28 0.85, 188.58 2.64, 270.73 0.4 M0.29 -0.5 C67.73 1.26, 134.46 0.15, 272.48 0.04 M270.24 -1.38 C272.66 5.87, 272.79 11.85, 271.73 23.43 M271.06 -0.74 C271.9 6.42, 272.03 12.06, 272.67 24.81 M271.22 26.51 C168.92 25.33, 64.93 25.02, -0.79 25.17 M272.48 25.34 C200.1 24.83, 129.16 25.94, -0.5 24.89 M-0.09 26.97 C0.03 20.85, -0.32 11.58, 0.61 -0.56 M-0.35 25.11 C0.95 18.74, 0.15 11.91, 0.7 0.24"
     stroke="#000000"
     stroke-width="1"
     fill="none"
     id="path212" />
</g>
<g
   transform="translate(62.75 653.625) rotate(0 32 10)"
   id="g218">
  <text
     x="0"
     y="14"
     font-family="Virgil, Segoe UI Emoji"
     font-size="16px"
     fill="#000000"
     text-anchor="start"
     style="white-space: pre;"
     direction="ltr"
     id="text216">Company</text>
</g>
<g
   transform="translate(83.25 698.125) rotate(0 37.5 10)"
   id="g222">
  <text
     x="0"
     y="14"
     font-family="Virgil, Segoe UI Emoji"
     font-size="16px"
     fill="#000000"
     text-anchor="start"
     style="white-space: pre;"
     direction="ltr"
     id="text220">Job Title</text>
</g>
<g
   stroke-linecap="round"
   transform="translate(181.75 695.625) rotate(0 135 12.5)"
   id="g226">
  <path
     d="M-0.59 0.02 C75.74 -2.63, 149.47 -2.19, 270.15 -0.57 M0.49 0.26 C90.39 -1.22, 182.08 -1.94, 270.62 -0.4 M269.11 0.59 C268.15 5.03, 268.25 9.26, 270.99 25.69 M270.59 -0.1 C270.22 5.81, 269.63 11.08, 270.36 25.08 M270.17 24.09 C202.39 24.21, 135.23 24.41, -1.07 25.42 M269.26 24.53 C172.86 22.56, 74.86 22.64, 0.5 25.37 M1.99 24.83 C-1.4 18.23, -0.81 9.41, -1.18 -1.99 M0.22 25 C-0.16 19.07, 0.21 11.98, 0.58 -0.61"
     stroke="#000000"
     stroke-width="1"
     fill="none"
     id="path224" />
</g>
<g
   transform="translate(507.75 647) rotate(0 21 10)"
   id="g230">
  <text
     x="0"
     y="14"
     font-family="Virgil, Segoe UI Emoji"
     font-size="16px"
     fill="#000000"
     text-anchor="start"
     style="white-space: pre;"
     direction="ltr"
     id="text228">Date</text>
</g>
<g
   stroke-linecap="round"
   transform="translate(572.25 648.5) rotate(0 23 8.5)"
   id="g234">
  <path
     d="M-0.48 -1.09 C9.49 1.94, 22.19 2.07, 46.27 -0.57 M-0.49 0.77 C12.68 -0.1, 26.94 -0.63, 45.63 0.17 M46.41 -0.17 C46.21 6.08, 46.71 12.25, 44.33 18.4 M46.8 0.03 C46.31 6.86, 46.61 13.67, 46.64 17.09 M44.4 18.21 C30.38 18.39, 15.58 15.91, -1.27 16.59 M45.58 16.23 C31.26 16.22, 17.89 17.68, 0.76 17.18 M0.63 16.55 C0.8 11.17, 1.21 5.56, 1.15 -1.14 M-0.36 16.49 C0.16 11.22, 0.27 4.46, -0.32 0.7"
     stroke="#000000"
     stroke-width="1"
     fill="none"
     id="path232" />
</g>
<g
   stroke-linecap="round"
   id="g240">
  <g
     transform="translate(642.25 657) rotate(0 -6.510907239252674 0.0366540328506062)"
     id="g238">
    <path
       d="M-0.29 -0.65 C-2.55 -0.55, -11.57 -0.09, -13.55 0.03 M1.77 1.62 C-0.71 1.45, -12.41 -1, -14.79 -1.55"
       stroke="#000000"
       stroke-width="1"
       fill="none"
       id="path236" />
  </g>
</g>
<g
   stroke-linecap="round"
   transform="translate(652.25 649) rotate(0 23 9)"
   id="g244">
  <path
     d="M-0.92 1.72 C13.04 2.11, 23.62 -0.32, 45.89 -0.54 M-0.86 0.2 C16.66 -0.69, 33.23 -0.18, 46.64 0.41 M46.15 -0.11 C46.72 6.93, 44.27 15.6, 47.44 16.61 M46.47 0.43 C46.95 7.72, 46.85 13.93, 46.38 18.4 M46.11 19.81 C37.4 17.6, 25.47 17.87, 0.17 16.11 M45.45 17.08 C31.08 18.19, 16.35 17.82, 0.18 17.9 M0.83 17.56 C1.19 11.8, 1.15 5.7, 0.91 1.43 M0.31 18.19 C0.51 11.48, -0.26 7.02, -0.67 0.27"
     stroke="#000000"
     stroke-width="1"
     fill="none"
     id="path242" />
</g>
<g
   stroke-linecap="round"
   transform="translate(180 739) rotate(0 306.5 29)"
   id="g248">
  <path
     d="M-0.71 -0.57 C205.74 2.27, 409.77 1.29, 612.2 0.46 M-0.23 -0.05 C143.17 -2.14, 287.03 -1.94, 612.89 -0.31 M612.59 1.97 C611.97 15.15, 612.83 28.93, 611.01 56.79 M613.63 -0.24 C612.43 14.73, 612.27 27.8, 613.9 57.65 M612.84 58.23 C453.68 60.97, 294.79 59.62, 0.71 58.23 M613.22 57.69 C426.72 56.67, 240.26 56.61, -0.38 57.66 M1.72 59.61 C0.4 41.52, 1.93 29.02, -1.11 1.96 M0.89 57.33 C-1.13 35.5, 0.19 12.19, -0.32 0.29"
     stroke="#000000"
     stroke-width="1"
     fill="none"
     id="path246" />
</g>
<g
   transform="translate(70 761) rotate(0 43 10)"
   id="g252">
  <text
     x="0"
     y="14"
     font-family="Virgil, Segoe UI Emoji"
     font-size="16px"
     fill="#000000"
     text-anchor="start"
     style="white-space: pre;"
     direction="ltr"
     id="text250">Description</text>
</g>
</svg>
